<svg width="20" height="10" viewBox="0 0 20 10" fill="none" xmlns="http://www.w3.org/2000/svg">
<path d="M19.8408 4.72852L13.3548 0.112515C13.144 -0.037505 12.8013 -0.037505 12.5905 0.112515C12.3797 0.262535 12.3797 0.506415 12.5905 0.656435L18.1534 4.61543H0.540504C0.242146 4.61543 0 4.78776 0 5.0001C0 5.21243 0.242146 5.38476 0.540504 5.38476H18.1534L12.5905 9.34376C12.3797 9.49378 12.3797 9.73766 12.5905 9.88768C12.6964 9.96307 12.8348 10 12.9732 10C13.1115 10 13.2499 9.9623 13.3559 9.88768L19.8419 5.27167C20.0527 5.12165 20.0527 4.87777 19.8419 4.72775L19.8408 4.72852Z" fill="white"/>
</svg>
