<svg xmlns="http://www.w3.org/2000/svg" width="13" height="17" viewBox="0 0 13 17">
  <defs>
    <style>
      .cls-1 {
        fill: #7347c1;
        fill-rule: evenodd;
      }
    </style>
  </defs>
  <path id="Forma_1_copy_2" data-name="Forma 1 copy 2" class="cls-1" d="M953.681,3169h-6.863a1.815,1.815,0,0,0-1.818,1.81v13.38a1.815,1.815,0,0,0,1.818,1.81h9.364a1.815,1.815,0,0,0,1.818-1.81v-10.91Zm2.5,15.89h-9.364a0.7,0.7,0,0,1-.7-0.7v-13.38a0.7,0.7,0,0,1,.7-0.7l6.446-.01v2.37a1.265,1.265,0,0,0,1.261,1.26l2.334-.01,0.027,10.47A0.7,0.7,0,0,1,956.182,3184.89Zm-6.534-8.89a9.311,9.311,0,0,0-1.413.09v4.54h1.036v-1.65a1.812,1.812,0,0,0,.356.03,2.128,2.128,0,0,0,1.5-.49,1.464,1.464,0,0,0,.425-1.09,1.366,1.366,0,0,0-.494-1.07A2.265,2.265,0,0,0,949.648,3176Zm-0.027,2.21a1.609,1.609,0,0,1-.35-0.03v-1.36a1.824,1.824,0,0,1,.432-0.04,0.688,0.688,0,0,1,.816.68A0.769,0.769,0,0,1,949.621,3178.21Zm4.4-.31c-0.6-.23-0.858-0.36-0.858-0.65,0-.24.22-0.44,0.672-0.44a2.191,2.191,0,0,1,.968.22l0.233-.84a2.725,2.725,0,0,0-1.18-.24,1.513,1.513,0,0,0-1.749,1.39,1.529,1.529,0,0,0,1.269,1.36c0.556,0.2.775,0.36,0.775,0.65s-0.254.49-.734,0.49a2.726,2.726,0,0,1-1.159-.28l-0.213.86a3.089,3.089,0,0,0,1.31.28c1.269,0,1.866-.66,1.866-1.43A1.455,1.455,0,0,0,954.02,3177.9Z" transform="translate(-945 -3169)"/>
</svg>
